<svg width="367" height="58" viewBox="0 0 367 58" fill="none" xmlns="http://www.w3.org/2000/svg">
<path d="M367 5C367 2.23858 364.761 0 362 0H0V58H362C364.761 58 367 55.7614 367 53V5Z" fill="#4285F4"/>
<path d="M91.7369 32.4762C91.7369 31.7262 91.4713 31.1481 90.94 30.7418C90.4166 30.3356 89.4674 29.9254 88.0924 29.5114C86.7174 29.0973 85.6236 28.6364 84.8111 28.1285C83.2565 27.152 82.4791 25.8785 82.4791 24.3082C82.4791 22.9332 83.0377 21.8004 84.1549 20.9098C85.2799 20.0192 86.7369 19.5739 88.526 19.5739C89.7135 19.5739 90.7721 19.7926 91.7018 20.2301C92.6315 20.6676 93.3619 21.2926 93.8932 22.1051C94.4244 22.9098 94.69 23.8043 94.69 24.7887H91.7369C91.7369 23.8981 91.4557 23.2028 90.8932 22.7028C90.3385 22.1949 89.5416 21.941 88.5025 21.941C87.5338 21.941 86.7799 22.1481 86.2408 22.5621C85.7096 22.9762 85.444 23.5543 85.444 24.2965C85.444 24.9215 85.733 25.4449 86.3111 25.8668C86.8893 26.2809 87.8424 26.6871 89.1705 27.0856C90.4986 27.4762 91.565 27.9254 92.3697 28.4332C93.1744 28.9332 93.7643 29.5114 94.1393 30.1676C94.5143 30.816 94.7018 31.5778 94.7018 32.4528C94.7018 33.8746 94.1549 35.0074 93.0611 35.8512C91.9752 36.6871 90.4986 37.1051 88.6315 37.1051C87.3971 37.1051 86.2604 36.8785 85.2213 36.4254C84.19 35.9645 83.3854 35.3317 82.8072 34.527C82.2369 33.7223 81.9518 32.7848 81.9518 31.7145H84.9166C84.9166 32.6832 85.2369 33.4332 85.8775 33.9645C86.5182 34.4957 87.4361 34.7614 88.6315 34.7614C89.6627 34.7614 90.4361 34.5543 90.9518 34.1403C91.4752 33.7184 91.7369 33.1637 91.7369 32.4762ZM99.7239 36.8707H96.8762V24.191H99.7239V36.8707ZM96.7005 20.8981C96.7005 20.4606 96.8372 20.0973 97.1106 19.8082C97.3919 19.5192 97.7903 19.3746 98.3059 19.3746C98.8216 19.3746 99.22 19.5192 99.5012 19.8082C99.7825 20.0973 99.9231 20.4606 99.9231 20.8981C99.9231 21.3278 99.7825 21.6871 99.5012 21.9762C99.22 22.2574 98.8216 22.3981 98.3059 22.3981C97.7903 22.3981 97.3919 22.2574 97.1106 21.9762C96.8372 21.6871 96.7005 21.3278 96.7005 20.8981ZM102.004 30.4371C102.004 28.4684 102.465 26.8981 103.387 25.7262C104.316 24.5465 105.547 23.9567 107.078 23.9567C108.523 23.9567 109.66 24.4606 110.488 25.4684L110.617 24.191H113.184V36.484C113.184 38.1481 112.664 39.4606 111.625 40.4215C110.594 41.3824 109.199 41.8629 107.441 41.8629C106.512 41.8629 105.602 41.6676 104.711 41.277C103.828 40.8942 103.156 40.3903 102.695 39.7653L104.043 38.0543C104.918 39.0934 105.996 39.6129 107.277 39.6129C108.223 39.6129 108.969 39.3551 109.516 38.8395C110.062 38.3317 110.336 37.5817 110.336 36.5895V35.734C109.516 36.6481 108.422 37.1051 107.055 37.1051C105.57 37.1051 104.355 36.5153 103.41 35.3356C102.473 34.1559 102.004 32.5231 102.004 30.4371ZM104.84 30.6832C104.84 31.9567 105.098 32.9606 105.613 33.6949C106.137 34.4215 106.859 34.7848 107.781 34.7848C108.93 34.7848 109.781 34.2926 110.336 33.3082V27.7301C109.797 26.7692 108.953 26.2887 107.805 26.2887C106.867 26.2887 106.137 26.6598 105.613 27.402C105.098 28.1442 104.84 29.2379 104.84 30.6832ZM118.428 24.191L118.51 25.6559C119.448 24.5231 120.678 23.9567 122.202 23.9567C124.842 23.9567 126.186 25.4684 126.233 28.4918V36.8707H123.385V28.6559C123.385 27.8512 123.21 27.2574 122.858 26.8746C122.514 26.484 121.948 26.2887 121.159 26.2887C120.01 26.2887 119.155 26.8082 118.592 27.8473V36.8707H115.745V24.191H118.428ZM137.484 36.8707H134.637V24.191H137.484V36.8707ZM134.461 20.8981C134.461 20.4606 134.598 20.0973 134.871 19.8082C135.152 19.5192 135.551 19.3746 136.066 19.3746C136.582 19.3746 136.98 19.5192 137.262 19.8082C137.543 20.0973 137.684 20.4606 137.684 20.8981C137.684 21.3278 137.543 21.6871 137.262 21.9762C136.98 22.2574 136.582 22.3981 136.066 22.3981C135.551 22.3981 135.152 22.2574 134.871 21.9762C134.598 21.6871 134.461 21.3278 134.461 20.8981ZM142.905 24.191L142.987 25.6559C143.924 24.5231 145.155 23.9567 146.678 23.9567C149.319 23.9567 150.663 25.4684 150.71 28.4918V36.8707H147.862V28.6559C147.862 27.8512 147.686 27.2574 147.335 26.8746C146.991 26.484 146.424 26.2887 145.635 26.2887C144.487 26.2887 143.631 26.8082 143.069 27.8473V36.8707H140.221V24.191H142.905ZM170.07 32.9449L172.086 24.191H174.863L171.406 36.8707H169.062L166.344 28.1637L163.672 36.8707H161.328L157.859 24.191H160.637L162.687 32.8512L165.289 24.191H167.434L170.07 32.9449ZM179.463 36.8707H176.616V24.191H179.463V36.8707ZM176.44 20.8981C176.44 20.4606 176.577 20.0973 176.85 19.8082C177.131 19.5192 177.53 19.3746 178.046 19.3746C178.561 19.3746 178.96 19.5192 179.241 19.8082C179.522 20.0973 179.663 20.4606 179.663 20.8981C179.663 21.3278 179.522 21.6871 179.241 21.9762C178.96 22.2574 178.561 22.3981 178.046 22.3981C177.53 22.3981 177.131 22.2574 176.85 21.9762C176.577 21.6871 176.44 21.3278 176.44 20.8981ZM185.81 21.109V24.191H188.048V26.3004H185.81V33.3785C185.81 33.8629 185.904 34.2145 186.091 34.4332C186.286 34.6442 186.63 34.7496 187.122 34.7496C187.45 34.7496 187.783 34.7106 188.118 34.6324V36.8356C187.47 37.0153 186.845 37.1051 186.243 37.1051C184.056 37.1051 182.962 35.8981 182.962 33.484V26.3004H180.876V24.191H182.962V21.109H185.81ZM192.707 25.5739C193.637 24.4957 194.812 23.9567 196.234 23.9567C198.937 23.9567 200.309 25.4996 200.348 28.5856V36.8707H197.5V28.691C197.5 27.816 197.309 27.1989 196.926 26.8395C196.551 26.4723 195.996 26.2887 195.262 26.2887C194.121 26.2887 193.269 26.7965 192.707 27.8121V36.8707H189.859V18.8707H192.707V25.5739ZM221.9 34.6559C221.283 35.4606 220.427 36.0699 219.333 36.484C218.24 36.8981 216.997 37.1051 215.607 37.1051C214.177 37.1051 212.911 36.7809 211.81 36.1324C210.708 35.484 209.857 34.5582 209.255 33.3551C208.661 32.1442 208.353 30.734 208.329 29.1246V27.7887C208.329 25.2106 208.947 23.1989 210.181 21.7535C211.415 20.3004 213.138 19.5739 215.349 19.5739C217.247 19.5739 218.755 20.0426 219.872 20.9801C220.99 21.9176 221.661 23.2692 221.888 25.0348H218.982C218.654 22.9801 217.462 21.9528 215.408 21.9528C214.079 21.9528 213.068 22.4332 212.372 23.3942C211.685 24.3473 211.329 25.7496 211.306 27.6012V28.9137C211.306 30.7574 211.693 32.191 212.466 33.2145C213.247 34.2301 214.329 34.7379 215.712 34.7379C217.228 34.7379 218.306 34.3942 218.947 33.7067V30.3668H215.431V28.1168H221.9V34.6559ZM224.016 30.4137C224.016 29.1715 224.262 28.0543 224.754 27.0621C225.246 26.0621 225.937 25.2965 226.828 24.7653C227.719 24.2262 228.742 23.9567 229.898 23.9567C231.609 23.9567 232.996 24.5074 234.059 25.609C235.129 26.7106 235.707 28.1715 235.793 29.9918L235.805 30.6598C235.805 31.9098 235.562 33.027 235.078 34.0114C234.602 34.9957 233.914 35.7574 233.016 36.2965C232.125 36.8356 231.094 37.1051 229.922 37.1051C228.133 37.1051 226.699 36.5114 225.621 35.3239C224.551 34.1285 224.016 32.5387 224.016 30.5543V30.4137ZM226.863 30.6598C226.863 31.9645 227.133 32.9879 227.672 33.7301C228.211 34.4645 228.961 34.8317 229.922 34.8317C230.883 34.8317 231.629 34.4567 232.16 33.7067C232.699 32.9567 232.969 31.859 232.969 30.4137C232.969 29.1324 232.691 28.1168 232.137 27.3668C231.59 26.6168 230.844 26.2418 229.898 26.2418C228.969 26.2418 228.23 26.6129 227.684 27.3551C227.137 28.0895 226.863 29.191 226.863 30.6598ZM237.346 30.4137C237.346 29.1715 237.592 28.0543 238.085 27.0621C238.577 26.0621 239.268 25.2965 240.159 24.7653C241.049 24.2262 242.073 23.9567 243.229 23.9567C244.94 23.9567 246.327 24.5074 247.389 25.609C248.46 26.7106 249.038 28.1715 249.124 29.9918L249.135 30.6598C249.135 31.9098 248.893 33.027 248.409 34.0114C247.932 34.9957 247.245 35.7574 246.346 36.2965C245.456 36.8356 244.424 37.1051 243.253 37.1051C241.463 37.1051 240.03 36.5114 238.952 35.3239C237.881 34.1285 237.346 32.5387 237.346 30.5543V30.4137ZM240.194 30.6598C240.194 31.9645 240.463 32.9879 241.003 33.7301C241.542 34.4645 242.292 34.8317 243.253 34.8317C244.213 34.8317 244.96 34.4567 245.491 33.7067C246.03 32.9567 246.299 31.859 246.299 30.4137C246.299 29.1324 246.022 28.1168 245.467 27.3668C244.921 26.6168 244.174 26.2418 243.229 26.2418C242.299 26.2418 241.561 26.6129 241.014 27.3551C240.467 28.0895 240.194 29.191 240.194 30.6598ZM250.712 30.4371C250.712 28.4684 251.173 26.8981 252.095 25.7262C253.025 24.5465 254.255 23.9567 255.786 23.9567C257.232 23.9567 258.368 24.4606 259.197 25.4684L259.325 24.191H261.892V36.484C261.892 38.1481 261.372 39.4606 260.333 40.4215C259.302 41.3824 257.908 41.8629 256.15 41.8629C255.22 41.8629 254.31 41.6676 253.419 41.277C252.536 40.8942 251.865 40.3903 251.404 39.7653L252.751 38.0543C253.626 39.0934 254.704 39.6129 255.986 39.6129C256.931 39.6129 257.677 39.3551 258.224 38.8395C258.771 38.3317 259.044 37.5817 259.044 36.5895V35.734C258.224 36.6481 257.13 37.1051 255.763 37.1051C254.279 37.1051 253.064 36.5153 252.118 35.3356C251.181 34.1559 250.712 32.5231 250.712 30.4371ZM253.548 30.6832C253.548 31.9567 253.806 32.9606 254.322 33.6949C254.845 34.4215 255.568 34.7848 256.49 34.7848C257.638 34.7848 258.49 34.2926 259.044 33.3082V27.7301C258.505 26.7692 257.661 26.2887 256.513 26.2887C255.575 26.2887 254.845 26.6598 254.322 27.402C253.806 28.1442 253.548 29.2379 253.548 30.6832ZM267.523 36.8707H264.676V18.8707H267.523V36.8707ZM275.885 37.1051C274.081 37.1051 272.616 36.5387 271.491 35.4059C270.374 34.2653 269.815 32.7496 269.815 30.859V30.5074C269.815 29.2418 270.057 28.1129 270.542 27.1207C271.034 26.1207 271.721 25.3434 272.604 24.7887C273.487 24.234 274.471 23.9567 275.557 23.9567C277.284 23.9567 278.616 24.5074 279.553 25.609C280.499 26.7106 280.971 28.2692 280.971 30.2848V31.4332H272.686C272.772 32.4801 273.12 33.3082 273.729 33.9176C274.346 34.527 275.12 34.8317 276.049 34.8317C277.354 34.8317 278.417 34.3043 279.237 33.2496L280.772 34.7145C280.264 35.4723 279.585 36.0621 278.733 36.484C277.889 36.8981 276.94 37.1051 275.885 37.1051ZM275.546 26.2418C274.764 26.2418 274.131 26.5153 273.647 27.0621C273.171 27.609 272.866 28.3707 272.733 29.3473H278.159V29.1364C278.096 28.1832 277.842 27.4645 277.397 26.9801C276.952 26.4879 276.335 26.2418 275.546 26.2418Z" fill="white"/>
</svg>
